<?xml version="1.0" encoding="UTF-8" standalone="no"?>
<svg width="200" height="200" viewBox="0 0 200 200" xmlns="http://www.w3.org/2000/svg">
  <!-- 3D Cube -->
  <g transform="translate(50, 60) scale(1.5)">
    <!-- Top face -->
    <polygon points="0,0 30,15 60,0 30,-15" fill="#d1cdc2" stroke="#2c3c35" stroke-width="3"/>
    <!-- Left face -->
    <polygon points="0,0 0,40 30,55 30,15" fill="#6c675f" stroke="#2c3c35" stroke-width="3"/>
    <!-- Right face -->
    <polygon points="30,15 60,0 60,40 30,55" fill="#3d3a35" stroke="#2c3c35" stroke-width="3"/>
  </g>

  <!-- Gear element -->
  <g transform="translate(130, 100)">
    <!-- Outer gear -->
    <path d="M0,-25 L5,-24 L7,-16 L14,-20 L20,-15 L16,-8 L24,-6 L25,0 L16,2 L20,9 L15,15 L8,11 L6,19 L0,20 L-2,11 L-9,15 L-15,9 L-11,2 L-19,0 L-18,-6 L-11,-8 L-15,-15 L-9,-20 L-7,-16 L-5,-24 Z" 
          fill="#4a5d4e" stroke="#2c3c35" stroke-width="2"/>
    <!-- Inner circle -->
    <circle cx="0" cy="0" r="10" fill="#d1cdc2" stroke="#2c3c35" stroke-width="2"/>
  </g>
</svg> 